<svg width="98" height="23" viewBox="0 0 98 23" fill="none" xmlns="http://www.w3.org/2000/svg">
<path d="M0.704 20V3.2H11.24V5.264H3.248V10.568H9.872V12.608H3.248V20H0.704ZM13.6393 20V2.72H16.1833V20H13.6393ZM24.9729 20.288C23.8369 20.288 22.8129 20.032 21.9009 19.52C21.0049 18.992 20.2929 18.264 19.7649 17.336C19.2369 16.392 18.9729 15.296 18.9729 14.048C18.9729 12.8 19.2369 11.712 19.7649 10.784C20.3089 9.84 21.0369 9.112 21.9489 8.6C22.8609 8.072 23.8769 7.808 24.9969 7.808C26.1329 7.808 27.1489 8.072 28.0449 8.6C28.9569 9.112 29.6769 9.84 30.2049 10.784C30.7489 11.712 31.0209 12.8 31.0209 14.048C31.0209 15.296 30.7489 16.392 30.2049 17.336C29.6769 18.264 28.9569 18.992 28.0449 19.52C27.1329 20.032 26.1089 20.288 24.9729 20.288ZM24.9729 18.104C25.5809 18.104 26.1409 17.952 26.6529 17.648C27.1809 17.344 27.6049 16.896 27.9249 16.304C28.2449 15.696 28.4049 14.944 28.4049 14.048C28.4049 13.152 28.2449 12.408 27.9249 11.816C27.6209 11.208 27.2049 10.752 26.6769 10.448C26.1649 10.144 25.6049 9.992 24.9969 9.992C24.3889 9.992 23.8209 10.144 23.2929 10.448C22.7809 10.752 22.3649 11.208 22.0449 11.816C21.7249 12.408 21.5649 13.152 21.5649 14.048C21.5649 14.944 21.7249 15.696 22.0449 16.304C22.3649 16.896 22.7809 17.344 23.2929 17.648C23.8049 17.952 24.3649 18.104 24.9729 18.104ZM35.7028 20L32.1988 8.096H34.7428L37.0468 17.072L39.6388 8.096H42.4708L45.0628 17.072L47.3668 8.096H49.9108L46.4068 20H43.7908L41.0548 10.64L38.3188 20H35.7028Z" fill="#F6F6F6"/>
<path d="M55.8464 0.823999C56.4864 0.823999 57.1664 0.816 57.8864 0.8C58.6224 0.767999 59.3104 0.735999 59.9504 0.704C60.5904 0.671999 61.1344 0.647999 61.5824 0.631999C62.0464 0.599999 62.3344 0.584 62.4464 0.584C62.8304 0.584 63.0224 0.791999 63.0224 1.208C63.0224 1.384 62.9984 1.752 62.9504 2.312C62.9024 2.856 62.8784 3.52 62.8784 4.304H61.9184C61.9184 3.968 61.8944 3.656 61.8464 3.368C61.8144 3.064 61.7344 2.8 61.6064 2.576C61.4944 2.352 61.3264 2.176 61.1024 2.048C60.8784 1.904 60.5744 1.832 60.1904 1.832H55.8464V9.44C56.3744 9.52 56.9024 9.584 57.4304 9.632C57.9744 9.664 58.5184 9.68 59.0624 9.68C59.6224 9.68 60.1824 9.624 60.7424 9.512C61.3024 9.384 61.7824 9.144 62.1824 8.792C62.2624 8.872 62.3344 8.984 62.3984 9.128C62.4784 9.272 62.5184 9.432 62.5184 9.608C62.5184 10.024 62.2864 10.376 61.8224 10.664C61.3584 10.936 60.6304 11.072 59.6384 11.072C58.9824 11.072 58.3424 11.024 57.7184 10.928C57.0944 10.832 56.4704 10.704 55.8464 10.544V17.336C55.8464 17.976 55.9824 18.52 56.2544 18.968C56.5424 19.4 56.8864 19.752 57.2864 20.024C57.6864 20.312 58.1104 20.512 58.5584 20.624C59.0064 20.752 59.3984 20.816 59.7344 20.816C60.1984 20.816 60.5744 20.752 60.8624 20.624C61.1664 20.512 61.4064 20.36 61.5824 20.168C61.7584 19.976 61.8784 19.76 61.9424 19.52C62.0224 19.264 62.0624 19 62.0624 18.728C62.0624 18.312 61.9904 17.976 61.8464 17.72C61.7184 17.448 61.5104 17.2 61.2224 16.976V16.88C61.5104 16.832 61.7664 16.808 61.9904 16.808C62.3424 16.808 62.6224 16.872 62.8304 17C63.0544 17.112 63.2224 17.264 63.3344 17.456C63.4624 17.648 63.5424 17.864 63.5744 18.104C63.6224 18.344 63.6464 18.584 63.6464 18.824C63.8384 18.824 63.9904 18.92 64.1024 19.112C64.2144 19.288 64.2704 19.536 64.2704 19.856C64.2704 20.144 64.2064 20.416 64.0784 20.672C63.9504 20.944 63.7424 21.176 63.4544 21.368C63.1824 21.576 62.8144 21.736 62.3504 21.848C61.9024 21.976 61.3504 22.04 60.6944 22.04C59.7344 22.04 58.8784 21.92 58.1264 21.68C57.3904 21.44 56.7024 21.176 56.0624 20.888C55.4224 20.616 54.7984 20.36 54.1904 20.12C53.5984 19.88 52.9664 19.76 52.2944 19.76H51.5504V18.752C51.7584 18.752 51.9904 18.744 52.2464 18.728C52.5024 18.696 52.7344 18.616 52.9424 18.488C53.1504 18.36 53.3264 18.16 53.4704 17.888C53.6144 17.6 53.6864 17.2 53.6864 16.688V3.248C53.6864 2.864 53.6144 2.56 53.4704 2.336C53.3264 2.112 53.1504 1.952 52.9424 1.856C52.7344 1.744 52.5024 1.672 52.2464 1.64C51.9904 1.608 51.7584 1.592 51.5504 1.592V0.584C51.7424 0.584 52.0384 0.599999 52.4384 0.631999C52.8384 0.647999 53.2544 0.671999 53.6864 0.704C54.1344 0.735999 54.5584 0.767999 54.9584 0.8C55.3584 0.816 55.6544 0.823999 55.8464 0.823999ZM75.0588 17.624C75.0588 17.944 75.1068 18.208 75.2028 18.416C75.3148 18.624 75.4428 18.792 75.5868 18.92C75.7468 19.048 75.9228 19.144 76.1148 19.208C76.3228 19.256 76.5228 19.28 76.7148 19.28V20C76.3468 20 76.0268 19.968 75.7548 19.904C75.4988 19.84 75.1868 19.808 74.8188 19.808C74.4508 19.808 74.1308 19.816 73.8588 19.832C73.5868 19.848 73.2668 19.904 72.8988 20V18.728C72.5308 19.144 72.0908 19.52 71.5788 19.856C71.0668 20.176 70.4428 20.336 69.7068 20.336C69.1148 20.336 68.5708 20.256 68.0748 20.096C67.5948 19.936 67.1788 19.704 66.8268 19.4C66.4908 19.096 66.2268 18.736 66.0348 18.32C65.8428 17.888 65.7468 17.408 65.7468 16.88C65.7468 16.368 65.8428 15.912 66.0348 15.512C66.2428 15.096 66.5308 14.752 66.8988 14.48C67.2668 14.192 67.6988 13.976 68.1948 13.832C68.6908 13.672 69.2428 13.592 69.8508 13.592C70.5388 13.592 71.1228 13.664 71.6028 13.808C72.0988 13.936 72.5308 14.088 72.8988 14.264V13.376C72.8988 12.96 72.8668 12.544 72.8028 12.128C72.7548 11.712 72.6508 11.336 72.4908 11C72.3308 10.664 72.0988 10.392 71.7948 10.184C71.4908 9.976 71.0988 9.872 70.6188 9.872C70.4108 9.872 70.1788 9.896 69.9228 9.944C69.6828 9.992 69.4588 10.08 69.2508 10.208C69.0428 10.32 68.8668 10.48 68.7228 10.688C68.5788 10.88 68.5068 11.128 68.5068 11.432C68.5068 11.592 68.5308 11.776 68.5788 11.984C68.3388 12.112 68.0748 12.176 67.7868 12.176C67.3388 12.176 67.0108 12.056 66.8028 11.816C66.5948 11.56 66.4908 11.272 66.4908 10.952C66.4908 10.632 66.5948 10.352 66.8028 10.112C67.0268 9.856 67.3388 9.728 67.7388 9.728C67.7388 9.552 67.8188 9.4 67.9788 9.272C68.1388 9.144 68.3468 9.048 68.6028 8.984C68.8748 8.904 69.1708 8.848 69.4908 8.816C69.8108 8.784 70.1388 8.768 70.4748 8.768C71.1948 8.768 71.8348 8.856 72.3948 9.032C72.9708 9.192 73.4508 9.48 73.8348 9.896C74.2348 10.296 74.5388 10.84 74.7468 11.528C74.9548 12.2 75.0588 13.056 75.0588 14.096V17.624ZM70.3788 19.232C70.9388 19.232 71.4268 19.072 71.8428 18.752C72.2588 18.416 72.6108 18.016 72.8988 17.552V15.152C72.5308 14.976 72.1228 14.832 71.6748 14.72C71.2268 14.592 70.7788 14.528 70.3308 14.528C69.6908 14.528 69.1388 14.72 68.6748 15.104C68.2268 15.488 68.0028 16.032 68.0028 16.736C68.0028 17.472 68.2188 18.072 68.6508 18.536C69.0828 19 69.6588 19.232 70.3788 19.232ZM86.072 11C86.072 11.608 85.864 12.056 85.448 12.344C85.048 12.616 84.592 12.752 84.08 12.752L84.008 12.632C84.12 12.584 84.24 12.464 84.368 12.272C84.496 12.08 84.56 11.824 84.56 11.504C84.56 10.96 84.36 10.56 83.96 10.304C83.56 10.032 83.032 9.896 82.376 9.896C82.216 9.896 82.024 9.912 81.8 9.944C81.576 9.976 81.36 10.048 81.152 10.16C80.944 10.272 80.76 10.432 80.6 10.64C80.456 10.848 80.384 11.12 80.384 11.456C80.384 11.904 80.536 12.256 80.84 12.512C81.144 12.768 81.52 12.984 81.968 13.16C82.432 13.336 82.928 13.504 83.456 13.664C83.984 13.824 84.472 14.032 84.92 14.288C85.384 14.544 85.768 14.88 86.072 15.296C86.376 15.712 86.528 16.264 86.528 16.952C86.528 18.072 86.104 18.92 85.256 19.496C84.424 20.056 83.32 20.336 81.944 20.336C81.848 20.336 81.696 20.328 81.488 20.312C81.28 20.312 81.072 20.296 80.864 20.264C80.672 20.232 80.496 20.184 80.336 20.12C80.176 20.056 80.096 19.96 80.096 19.832C79.424 19.832 78.92 19.656 78.584 19.304C78.248 18.952 78.08 18.504 78.08 17.96C78.08 17.368 78.248 16.944 78.584 16.688C78.936 16.432 79.336 16.288 79.784 16.256L79.832 16.328C79.704 16.472 79.624 16.664 79.592 16.904C79.56 17.128 79.544 17.304 79.544 17.432C79.544 17.784 79.624 18.08 79.784 18.32C79.944 18.544 80.144 18.728 80.384 18.872C80.624 19 80.888 19.096 81.176 19.16C81.48 19.208 81.776 19.232 82.064 19.232C82.128 19.232 82.272 19.224 82.496 19.208C82.736 19.192 82.976 19.136 83.216 19.04C83.456 18.928 83.672 18.76 83.864 18.536C84.056 18.296 84.152 17.968 84.152 17.552C84.152 17.056 84.008 16.664 83.72 16.376C83.432 16.088 83.064 15.848 82.616 15.656C82.184 15.464 81.712 15.288 81.2 15.128C80.688 14.952 80.208 14.744 79.76 14.504C79.328 14.264 78.968 13.952 78.68 13.568C78.392 13.168 78.248 12.64 78.248 11.984C78.248 11.328 78.392 10.792 78.68 10.376C78.968 9.96 79.328 9.632 79.76 9.392C80.192 9.152 80.648 8.992 81.128 8.912C81.624 8.816 82.072 8.768 82.472 8.768C82.984 8.768 83.376 8.816 83.648 8.912C83.92 9.008 84.056 9.144 84.056 9.32C84.296 9.32 84.536 9.352 84.776 9.416C85.016 9.464 85.232 9.552 85.424 9.68C85.616 9.808 85.768 9.984 85.88 10.208C86.008 10.416 86.072 10.68 86.072 11ZM94.0749 19.256C94.3149 19.256 94.5549 19.232 94.7949 19.184C95.0349 19.12 95.2589 19.016 95.4669 18.872C95.6909 18.712 95.8909 18.496 96.0669 18.224C96.2589 17.936 96.4269 17.56 96.5709 17.096C96.9389 17.096 97.2429 17.184 97.4829 17.36C97.7229 17.536 97.8429 17.808 97.8429 18.176C97.8429 18.512 97.7309 18.816 97.5069 19.088C97.2989 19.36 97.0109 19.592 96.6429 19.784C96.2909 19.96 95.8749 20.096 95.3949 20.192C94.9309 20.288 94.4429 20.336 93.9309 20.336C93.0509 20.336 92.2749 20.2 91.6029 19.928C90.9309 19.64 90.3709 19.248 89.9229 18.752C89.4749 18.24 89.1309 17.624 88.8909 16.904C88.6669 16.184 88.5549 15.392 88.5549 14.528C88.5549 12.736 89.0269 11.328 89.9709 10.304C90.9149 9.28 92.2589 8.768 94.0029 8.768C94.2109 8.768 94.4189 8.776 94.6269 8.792C94.8349 8.808 95.0269 8.848 95.2029 8.912C95.3789 8.96 95.5229 9.04 95.6349 9.152C95.7469 9.248 95.8029 9.376 95.8029 9.536C96.0429 9.536 96.2829 9.584 96.5229 9.68C96.7789 9.776 97.0109 9.92 97.2189 10.112C97.4429 10.304 97.6189 10.552 97.7469 10.856C97.8909 11.144 97.9629 11.496 97.9629 11.912C97.9629 12.504 97.8189 12.992 97.5309 13.376C97.2429 13.76 96.8749 14.072 96.4269 14.312C95.9949 14.536 95.5149 14.696 94.9869 14.792C94.4749 14.872 93.9869 14.912 93.5229 14.912C92.9949 14.912 92.4989 14.872 92.0349 14.792C91.5869 14.712 91.2029 14.616 90.8829 14.504V14.6C90.8829 15.272 90.9389 15.896 91.0509 16.472C91.1629 17.048 91.3389 17.544 91.5789 17.96C91.8349 18.36 92.1629 18.68 92.5629 18.92C92.9789 19.144 93.4829 19.256 94.0749 19.256ZM93.8109 9.896C92.9469 9.896 92.2829 10.208 91.8189 10.832C91.3549 11.456 91.0589 12.32 90.9309 13.424C91.2029 13.6 91.5709 13.72 92.0349 13.784C92.5149 13.832 92.9709 13.856 93.4029 13.856C94.2669 13.856 94.8669 13.72 95.2029 13.448C95.5549 13.176 95.7309 12.704 95.7309 12.032C95.7309 11.232 95.5469 10.68 95.1789 10.376C94.8109 10.056 94.3549 9.896 93.8109 9.896Z" fill="white"/>
</svg>
