<svg width="26" height="28" viewBox="0 0 26 28" fill="none" xmlns="http://www.w3.org/2000/svg">
<path d="M20.8395 19.9944C20.3192 19.0981 19.5458 16.5622 19.5458 13.25C19.5458 11.2609 18.7556 9.35322 17.3491 7.9467C15.9426 6.54018 14.0349 5.75 12.0458 5.75C10.0567 5.75 8.14901 6.54018 6.74249 7.9467C5.33596 9.35322 4.54579 11.2609 4.54579 13.25C4.54579 16.5631 3.77141 19.0981 3.2511 19.9944C3.11823 20.2222 3.04779 20.4811 3.04688 20.7449C3.04598 21.0086 3.11464 21.268 3.24594 21.4967C3.37725 21.7255 3.56655 21.9156 3.79476 22.0478C4.02297 22.1801 4.28202 22.2498 4.54579 22.25H8.37173C8.54476 23.0967 9.00494 23.8577 9.67441 24.4042C10.3439 24.9507 11.1816 25.2492 12.0458 25.2492C12.91 25.2492 13.7477 24.9507 14.4172 24.4042C15.0866 23.8577 15.5468 23.0967 15.7199 22.25H19.5458C19.8095 22.2496 20.0684 22.1798 20.2965 22.0475C20.5246 21.9151 20.7137 21.725 20.8449 21.4963C20.9761 21.2676 21.0447 21.0083 21.0438 20.7446C21.0428 20.4809 20.9724 20.2222 20.8395 19.9944ZM12.0458 23.75C11.5806 23.7499 11.1269 23.6055 10.7472 23.3369C10.3674 23.0683 10.0802 22.6886 9.92516 22.25H14.1664C14.0114 22.6886 13.7242 23.0683 13.3444 23.3369C12.9646 23.6055 12.511 23.7499 12.0458 23.75ZM4.54579 20.75C5.26766 19.5087 6.04579 16.6325 6.04579 13.25C6.04579 11.6587 6.67793 10.1326 7.80315 9.00736C8.92837 7.88214 10.4545 7.25 12.0458 7.25C13.6371 7.25 15.1632 7.88214 16.2884 9.00736C17.4136 10.1326 18.0458 11.6587 18.0458 13.25C18.0458 16.6297 18.822 19.5059 19.5458 20.75H4.54579Z" fill="#1A1817"/>
<path fill-rule="evenodd" clip-rule="evenodd" d="M18.0459 14.5C21.9118 14.5 25.0458 11.366 25.0458 7.5C25.0458 3.63401 21.9118 0.5 18.0459 0.5C14.1799 0.5 11.0459 3.63401 11.0459 7.5C11.0459 11.366 14.1799 14.5 18.0459 14.5Z" fill="#15226C"/>
<path d="M15.1642 8.678C15.3002 8.57 15.3622 8.52 15.3502 8.528C15.7422 8.204 16.0502 7.938 16.2742 7.73C16.5022 7.522 16.6942 7.304 16.8502 7.076C17.0062 6.848 17.0842 6.626 17.0842 6.41C17.0842 6.246 17.0462 6.118 16.9702 6.026C16.8942 5.934 16.7802 5.888 16.6282 5.888C16.4762 5.888 16.3562 5.946 16.2682 6.062C16.1842 6.174 16.1422 6.334 16.1422 6.542H15.1522C15.1602 6.202 15.2322 5.918 15.3682 5.69C15.5082 5.462 15.6902 5.294 15.9142 5.186C16.1422 5.078 16.3942 5.024 16.6702 5.024C17.1462 5.024 17.5042 5.146 17.7442 5.39C17.9882 5.634 18.1102 5.952 18.1102 6.344C18.1102 6.772 17.9642 7.17 17.6722 7.538C17.3802 7.902 17.0082 8.258 16.5562 8.606H18.1762V9.44H15.1642V8.678ZM18.2233 8.72V7.892L20.1193 5.18H21.2653V7.832H21.7573V8.72H21.2653V9.5H20.2393V8.72H18.2233ZM20.3113 6.308L19.3033 7.832H20.3113V6.308Z" fill="#FFFCFC"/>
</svg>
