<svg width="43" height="42" viewBox="0 0 43 42" fill="none" xmlns="http://www.w3.org/2000/svg">
<path d="M37.7159 21C37.7159 29.9418 30.4672 37.1905 21.5254 37.1905C12.5837 37.1905 5.33496 29.9418 5.33496 21C5.33496 12.0583 12.5837 4.80957 21.5254 4.80957C30.4672 4.80957 37.7159 12.0583 37.7159 21Z" stroke="#15226C" stroke-width="1.5"/>
<path d="M41.5 21H37.6904" stroke="#15226C" stroke-width="1.5" stroke-linecap="round" stroke-linejoin="round"/>
<path d="M5.30952 21H1.5" stroke="#15226C" stroke-width="1.5" stroke-linecap="round" stroke-linejoin="round"/>
<path d="M21.5 1.00005L21.5 4.80957" stroke="#15226C" stroke-width="1.5" stroke-linecap="round" stroke-linejoin="round"/>
<path d="M21.5 37.1905V41" stroke="#15226C" stroke-width="1.5" stroke-linecap="round" stroke-linejoin="round"/>
<path d="M27.2146 20.9999C27.2146 24.1558 24.6562 26.7142 21.5003 26.7142C18.3444 26.7142 15.786 24.1558 15.786 20.9999C15.786 17.844 18.3444 15.2856 21.5003 15.2856C24.6562 15.2856 27.2146 17.844 27.2146 20.9999Z" fill="#15226C" stroke="white" stroke-width="1.5"/>
</svg>
