<svg width="41" height="40" viewBox="0 0 41 40" fill="none" xmlns="http://www.w3.org/2000/svg">
<g clip-path="url(#clip0_2243_577)">
<path d="M40.1289 28.3789L29.25 39.2773L23.9961 34.0039L25.7539 32.2461L29.25 35.7227L38.3711 26.6211L40.1289 28.3789ZM20.5 7.5V17.5H28V20H18V7.5H20.5ZM19.25 35C19.4583 35 19.6667 34.9935 19.875 34.9805C20.0833 34.9674 20.2917 34.9544 20.5 34.9414L22.7266 37.168C22.1406 37.2721 21.5612 37.3503 20.9883 37.4023C20.4154 37.4544 19.8359 37.487 19.25 37.5C17.5312 37.5 15.8776 37.2786 14.2891 36.8359C12.7005 36.3932 11.2031 35.7617 9.79688 34.9414C8.39062 34.1211 7.1276 33.1445 6.00781 32.0117C4.88802 30.8789 3.91146 29.6094 3.07812 28.2031C2.24479 26.7969 1.61328 25.306 1.18359 23.7305C0.753906 22.1549 0.526042 20.4948 0.5 18.75C0.5 17.0312 0.721354 15.3776 1.16406 13.7891C1.60677 12.2005 2.23828 10.7031 3.05859 9.29688C3.87891 7.89062 4.85547 6.6276 5.98828 5.50781C7.12109 4.38802 8.39062 3.41146 9.79688 2.57812C11.2031 1.74479 12.694 1.11328 14.2695 0.683594C15.8451 0.253906 17.5052 0.0260417 19.25 0C20.9688 0 22.6224 0.221354 24.2109 0.664062C25.7995 1.10677 27.2969 1.73828 28.7031 2.55859C30.1094 3.37891 31.3724 4.35547 32.4922 5.48828C33.612 6.62109 34.5885 7.89062 35.4219 9.29688C36.2552 10.7031 36.8867 12.194 37.3164 13.7695C37.7461 15.3451 37.974 17.0052 38 18.75C38 19.401 37.9609 20.0586 37.8828 20.7227L34.6016 24.0234C35.2005 22.2917 35.5 20.5339 35.5 18.75C35.5 17.2526 35.3047 15.8138 34.9141 14.4336C34.5234 13.0534 33.9766 11.7643 33.2734 10.5664C32.5703 9.36849 31.724 8.26823 30.7344 7.26562C29.7448 6.26302 28.651 5.41667 27.4531 4.72656C26.2552 4.03646 24.9596 3.48958 23.5664 3.08594C22.1732 2.68229 20.7344 2.48698 19.25 2.5C17.7526 2.5 16.3138 2.69531 14.9336 3.08594C13.5534 3.47656 12.2643 4.02344 11.0664 4.72656C9.86849 5.42969 8.76823 6.27604 7.76562 7.26562C6.76302 8.25521 5.91667 9.34896 5.22656 10.5469C4.53646 11.7448 3.98958 13.0404 3.58594 14.4336C3.18229 15.8268 2.98698 17.2656 3 18.75C3 20.2474 3.19531 21.6862 3.58594 23.0664C3.97656 24.4466 4.52344 25.7357 5.22656 26.9336C5.92969 28.1315 6.77604 29.2318 7.76562 30.2344C8.75521 31.237 9.84896 32.0833 11.0469 32.7734C12.2448 33.4635 13.5404 34.0104 14.9336 34.4141C16.3268 34.8177 17.7656 35.013 19.25 35Z" fill="#15226C"/>
</g>
<defs>
<clipPath id="clip0_2243_577">
<rect width="40" height="40" fill="white" transform="translate(0.5)"/>
</clipPath>
</defs>
</svg>
