<svg width="41" height="40" viewBox="0 0 41 40" fill="none" xmlns="http://www.w3.org/2000/svg">
<path d="M4.32169 39.4307C3.23225 39.4307 2.32334 39.0512 1.59495 38.2922C0.86656 37.5331 0.501577 36.5851 0.5 35.4482V3.9825C0.5 2.84723 0.864983 1.90007 1.59495 1.14103C2.32492 0.381985 3.23383 0.00164295 4.32169 0H34.5192C35.607 0 36.5159 0.380342 37.2459 1.14103C37.9759 1.90171 38.3401 2.84887 38.3385 3.9825V16.8616C37.9538 16.6184 37.5723 16.4155 37.1939 16.2528C36.8139 16.0902 36.4071 15.9473 35.9736 15.824V3.9825C35.9736 3.53891 35.8372 3.17499 35.5644 2.89076C35.2917 2.60653 34.9433 2.46442 34.5192 2.46442H4.31932C3.89521 2.46442 3.54679 2.60653 3.27403 2.89076C3.00128 3.17499 2.8649 3.53891 2.8649 3.9825V26.1623H12.7975C13.1522 27.3025 13.7514 28.2833 14.5948 29.1048C15.4367 29.9263 16.4158 30.5013 17.532 30.8299C17.5652 31.2718 17.6077 31.7007 17.6597 32.1163C17.7118 32.5303 17.7811 32.9592 17.8679 33.4027C16.4805 33.1777 15.2263 32.6486 14.1053 31.8157C12.9859 30.9843 12.0589 29.9205 11.3242 28.6242H2.8649V35.4507C2.8649 35.8926 3.00128 36.2557 3.27403 36.54C3.54679 36.8242 3.896 36.9663 4.32169 36.9663H19.5044C19.7503 37.4263 19.9979 37.8543 20.247 38.2503C20.4961 38.6446 20.7854 39.0381 21.1149 39.4307H4.32169ZM4.32169 36.9663H2.8649H19.5044H4.32169ZM30.7566 39.9975L30.5035 37.8683C29.6364 37.6629 28.9049 37.3918 28.3089 37.055C27.713 36.7182 27.1375 36.2278 26.5825 35.5838L24.6551 36.4069L23.3805 34.3984L25.0548 32.9764C24.7631 32.1352 24.6173 31.3006 24.6173 30.4726C24.6173 29.6445 24.7631 28.7951 25.0548 27.9243L23.3805 26.4555L24.6551 24.4446L26.5825 25.2702C27.1075 24.6573 27.6909 24.1743 28.3326 23.8211C28.9742 23.4678 29.6979 23.1894 30.5035 22.9856L30.7566 20.8539H33.1215L33.3769 22.9856C34.1826 23.1598 34.8983 23.4309 35.5242 23.7989C36.1517 24.1669 36.743 24.6573 37.2979 25.2702L39.2253 24.4446L40.5 26.4531L38.8256 27.9243C39.1457 28.828 39.2986 29.6856 39.2844 30.4972C39.2702 31.3088 39.1023 32.1352 38.7807 32.9764L40.4976 34.3984L39.2253 36.4069L37.2979 35.5838C36.743 36.1966 36.1675 36.6788 35.5715 37.0304C34.9756 37.3836 34.244 37.6629 33.3769 37.8683L33.1215 40L30.7566 39.9975ZM31.939 35.7341C33.3312 35.7341 34.5286 35.2116 35.5313 34.1667C36.5325 33.1234 37.0331 31.8764 37.0331 30.4257C37.0331 28.975 36.5317 27.728 35.529 26.6847C34.5263 25.6415 33.3296 25.119 31.939 25.1174C30.5485 25.1157 29.3518 25.6382 28.3491 26.6847C27.3464 27.7313 26.845 28.9783 26.845 30.4257C26.845 31.8764 27.3464 33.1234 28.3491 34.1667C29.3518 35.2116 30.5485 35.7341 31.939 35.7341Z" fill="#15226C"/>
</svg>
