<svg width="147" height="34" viewBox="0 0 147 34" fill="none" xmlns="http://www.w3.org/2000/svg">
<path d="M0.556 30V4.8H16.36V7.896H4.372V15.852H14.308V18.912H4.372V30H0.556ZM19.9589 30V4.08H23.7749V30H19.9589ZM36.9593 30.432C35.2553 30.432 33.7193 30.048 32.3513 29.28C31.0073 28.488 29.9393 27.396 29.1473 26.004C28.3553 24.588 27.9593 22.944 27.9593 21.072C27.9593 19.2 28.3553 17.568 29.1473 16.176C29.9633 14.76 31.0553 13.668 32.4233 12.9C33.7913 12.108 35.3153 11.712 36.9953 11.712C38.6993 11.712 40.2233 12.108 41.5673 12.9C42.9353 13.668 44.0153 14.76 44.8073 16.176C45.6233 17.568 46.0313 19.2 46.0313 21.072C46.0313 22.944 45.6233 24.588 44.8073 26.004C44.0153 27.396 42.9353 28.488 41.5673 29.28C40.1993 30.048 38.6633 30.432 36.9593 30.432ZM36.9593 27.156C37.8713 27.156 38.7113 26.928 39.4793 26.472C40.2713 26.016 40.9073 25.344 41.3873 24.456C41.8673 23.544 42.1073 22.416 42.1073 21.072C42.1073 19.728 41.8673 18.612 41.3873 17.724C40.9313 16.812 40.3073 16.128 39.5153 15.672C38.7473 15.216 37.9073 14.988 36.9953 14.988C36.0833 14.988 35.2313 15.216 34.4393 15.672C33.6713 16.128 33.0473 16.812 32.5673 17.724C32.0873 18.612 31.8473 19.728 31.8473 21.072C31.8473 22.416 32.0873 23.544 32.5673 24.456C33.0473 25.344 33.6713 26.016 34.4393 26.472C35.2073 26.928 36.0473 27.156 36.9593 27.156ZM53.0541 30L47.7981 12.144H51.6141L55.0701 25.608L58.9581 12.144H63.2061L67.0941 25.608L70.5501 12.144H74.3661L69.1101 30H65.1861L61.0821 15.96L56.9781 30H53.0541Z" fill="#0B2FF7"/>
<path d="M83.2697 1.236C84.2297 1.236 85.2497 1.224 86.3297 1.2C87.4337 1.152 88.4657 1.104 89.4257 1.056C90.3857 1.008 91.2017 0.971995 91.8737 0.947995C92.5697 0.899996 93.0017 0.875996 93.1697 0.875996C93.7457 0.875996 94.0337 1.188 94.0337 1.812C94.0337 2.076 93.9977 2.628 93.9257 3.468C93.8537 4.284 93.8177 5.28 93.8177 6.456H92.3777C92.3777 5.952 92.3417 5.484 92.2697 5.052C92.2217 4.596 92.1017 4.2 91.9097 3.864C91.7417 3.528 91.4897 3.264 91.1537 3.072C90.8177 2.856 90.3617 2.748 89.7857 2.748H83.2697V14.16C84.0617 14.28 84.8537 14.376 85.6457 14.448C86.4617 14.496 87.2777 14.52 88.0937 14.52C88.9337 14.52 89.7737 14.436 90.6137 14.268C91.4537 14.076 92.1737 13.716 92.7737 13.188C92.8937 13.308 93.0017 13.476 93.0977 13.692C93.2177 13.908 93.2777 14.148 93.2777 14.412C93.2777 15.036 92.9297 15.564 92.2337 15.996C91.5377 16.404 90.4457 16.608 88.9577 16.608C87.9737 16.608 87.0137 16.536 86.0777 16.392C85.1417 16.248 84.2057 16.056 83.2697 15.816V26.004C83.2697 26.964 83.4737 27.78 83.8817 28.452C84.3137 29.1 84.8297 29.628 85.4297 30.036C86.0297 30.468 86.6657 30.768 87.3377 30.936C88.0097 31.128 88.5977 31.224 89.1017 31.224C89.7977 31.224 90.3617 31.128 90.7937 30.936C91.2497 30.768 91.6097 30.54 91.8737 30.252C92.1377 29.964 92.3177 29.64 92.4137 29.28C92.5337 28.896 92.5937 28.5 92.5937 28.092C92.5937 27.468 92.4857 26.964 92.2697 26.58C92.0777 26.172 91.7657 25.8 91.3337 25.464V25.32C91.7657 25.248 92.1497 25.212 92.4857 25.212C93.0137 25.212 93.4337 25.308 93.7457 25.5C94.0817 25.668 94.3337 25.896 94.5017 26.184C94.6937 26.472 94.8137 26.796 94.8617 27.156C94.9337 27.516 94.9697 27.876 94.9697 28.236C95.2577 28.236 95.4857 28.38 95.6537 28.668C95.8217 28.932 95.9057 29.304 95.9057 29.784C95.9057 30.216 95.8097 30.624 95.6177 31.008C95.4257 31.416 95.1137 31.764 94.6817 32.052C94.2737 32.364 93.7217 32.604 93.0257 32.772C92.3537 32.964 91.5257 33.06 90.5417 33.06C89.1017 33.06 87.8177 32.88 86.6897 32.52C85.5857 32.16 84.5537 31.764 83.5937 31.332C82.6337 30.924 81.6977 30.54 80.7857 30.18C79.8977 29.82 78.9497 29.64 77.9417 29.64H76.8257V28.128C77.1377 28.128 77.4857 28.116 77.8697 28.092C78.2537 28.044 78.6017 27.924 78.9137 27.732C79.2257 27.54 79.4897 27.24 79.7057 26.832C79.9217 26.4 80.0297 25.8 80.0297 25.032V4.872C80.0297 4.296 79.9217 3.83999 79.7057 3.50399C79.4897 3.16799 79.2257 2.928 78.9137 2.784C78.6017 2.616 78.2537 2.508 77.8697 2.46C77.4857 2.412 77.1377 2.388 76.8257 2.388V0.875996C77.1137 0.875996 77.5577 0.899996 78.1577 0.947995C78.7577 0.971995 79.3817 1.008 80.0297 1.056C80.7017 1.104 81.3377 1.152 81.9377 1.2C82.5377 1.224 82.9817 1.236 83.2697 1.236ZM112.088 26.436C112.088 26.916 112.16 27.312 112.304 27.624C112.472 27.936 112.664 28.188 112.88 28.38C113.12 28.572 113.384 28.716 113.672 28.812C113.984 28.884 114.284 28.92 114.572 28.92V30C114.02 30 113.54 29.952 113.132 29.856C112.748 29.76 112.28 29.712 111.728 29.712C111.176 29.712 110.696 29.724 110.288 29.748C109.88 29.772 109.4 29.856 108.848 30V28.092C108.296 28.716 107.636 29.28 106.868 29.784C106.1 30.264 105.164 30.504 104.06 30.504C103.172 30.504 102.356 30.384 101.612 30.144C100.892 29.904 100.268 29.556 99.7402 29.1C99.2362 28.644 98.8402 28.104 98.5522 27.48C98.2642 26.832 98.1202 26.112 98.1202 25.32C98.1202 24.552 98.2642 23.868 98.5522 23.268C98.8642 22.644 99.2962 22.128 99.8482 21.72C100.4 21.288 101.048 20.964 101.792 20.748C102.536 20.508 103.364 20.388 104.276 20.388C105.308 20.388 106.184 20.496 106.904 20.712C107.648 20.904 108.296 21.132 108.848 21.396V20.064C108.848 19.44 108.8 18.816 108.704 18.192C108.632 17.568 108.476 17.004 108.236 16.5C107.996 15.996 107.648 15.588 107.192 15.276C106.736 14.964 106.148 14.808 105.428 14.808C105.116 14.808 104.768 14.844 104.384 14.916C104.024 14.988 103.688 15.12 103.376 15.312C103.064 15.48 102.8 15.72 102.584 16.032C102.368 16.32 102.26 16.692 102.26 17.148C102.26 17.388 102.296 17.664 102.368 17.976C102.008 18.168 101.612 18.264 101.18 18.264C100.508 18.264 100.016 18.084 99.7042 17.724C99.3922 17.34 99.2362 16.908 99.2362 16.428C99.2362 15.948 99.3922 15.528 99.7042 15.168C100.04 14.784 100.508 14.592 101.108 14.592C101.108 14.328 101.228 14.1 101.468 13.908C101.708 13.716 102.02 13.572 102.404 13.476C102.812 13.356 103.256 13.272 103.736 13.224C104.216 13.176 104.708 13.152 105.212 13.152C106.292 13.152 107.252 13.284 108.092 13.548C108.956 13.788 109.676 14.22 110.252 14.844C110.852 15.444 111.308 16.26 111.62 17.292C111.932 18.3 112.088 19.584 112.088 21.144V26.436ZM105.068 28.848C105.908 28.848 106.64 28.608 107.264 28.128C107.888 27.624 108.416 27.024 108.848 26.328V22.728C108.296 22.464 107.684 22.248 107.012 22.08C106.34 21.888 105.668 21.792 104.996 21.792C104.036 21.792 103.208 22.08 102.512 22.656C101.84 23.232 101.504 24.048 101.504 25.104C101.504 26.208 101.828 27.108 102.476 27.804C103.124 28.5 103.988 28.848 105.068 28.848ZM128.608 16.5C128.608 17.412 128.296 18.084 127.672 18.516C127.072 18.924 126.388 19.128 125.62 19.128L125.512 18.948C125.68 18.876 125.86 18.696 126.052 18.408C126.244 18.12 126.34 17.736 126.34 17.256C126.34 16.44 126.04 15.84 125.44 15.456C124.84 15.048 124.048 14.844 123.064 14.844C122.824 14.844 122.536 14.868 122.2 14.916C121.864 14.964 121.54 15.072 121.228 15.24C120.916 15.408 120.64 15.648 120.4 15.96C120.184 16.272 120.076 16.68 120.076 17.184C120.076 17.856 120.304 18.384 120.76 18.768C121.216 19.152 121.78 19.476 122.452 19.74C123.148 20.004 123.892 20.256 124.684 20.496C125.476 20.736 126.208 21.048 126.88 21.432C127.576 21.816 128.152 22.32 128.608 22.944C129.064 23.568 129.292 24.396 129.292 25.428C129.292 27.108 128.656 28.38 127.384 29.244C126.136 30.084 124.48 30.504 122.416 30.504C122.272 30.504 122.044 30.492 121.732 30.468C121.42 30.468 121.108 30.444 120.796 30.396C120.508 30.348 120.244 30.276 120.004 30.18C119.764 30.084 119.644 29.94 119.644 29.748C118.636 29.748 117.88 29.484 117.376 28.956C116.872 28.428 116.62 27.756 116.62 26.94C116.62 26.052 116.872 25.416 117.376 25.032C117.904 24.648 118.504 24.432 119.176 24.384L119.248 24.492C119.056 24.708 118.936 24.996 118.888 25.356C118.84 25.692 118.816 25.956 118.816 26.148C118.816 26.676 118.936 27.12 119.176 27.48C119.416 27.816 119.716 28.092 120.076 28.308C120.436 28.5 120.832 28.644 121.264 28.74C121.72 28.812 122.164 28.848 122.596 28.848C122.692 28.848 122.908 28.836 123.244 28.812C123.604 28.788 123.964 28.704 124.324 28.56C124.684 28.392 125.008 28.14 125.296 27.804C125.584 27.444 125.728 26.952 125.728 26.328C125.728 25.584 125.512 24.996 125.08 24.564C124.648 24.132 124.096 23.772 123.424 23.484C122.776 23.196 122.068 22.932 121.3 22.692C120.532 22.428 119.812 22.116 119.14 21.756C118.492 21.396 117.952 20.928 117.52 20.352C117.088 19.752 116.872 18.96 116.872 17.976C116.872 16.992 117.088 16.188 117.52 15.564C117.952 14.94 118.492 14.448 119.14 14.088C119.788 13.728 120.472 13.488 121.192 13.368C121.936 13.224 122.608 13.152 123.208 13.152C123.976 13.152 124.564 13.224 124.972 13.368C125.38 13.512 125.584 13.716 125.584 13.98C125.944 13.98 126.304 14.028 126.664 14.124C127.024 14.196 127.348 14.328 127.636 14.52C127.924 14.712 128.152 14.976 128.32 15.312C128.512 15.624 128.608 16.02 128.608 16.5ZM140.612 28.884C140.972 28.884 141.332 28.848 141.692 28.776C142.052 28.68 142.388 28.524 142.7 28.308C143.036 28.068 143.336 27.744 143.6 27.336C143.888 26.904 144.14 26.34 144.356 25.644C144.908 25.644 145.364 25.776 145.724 26.04C146.084 26.304 146.264 26.712 146.264 27.264C146.264 27.768 146.096 28.224 145.76 28.632C145.448 29.04 145.016 29.388 144.464 29.676C143.936 29.94 143.312 30.144 142.592 30.288C141.896 30.432 141.164 30.504 140.396 30.504C139.076 30.504 137.912 30.3 136.904 29.892C135.896 29.46 135.056 28.872 134.384 28.128C133.712 27.36 133.196 26.436 132.836 25.356C132.5 24.276 132.332 23.088 132.332 21.792C132.332 19.104 133.04 16.992 134.456 15.456C135.872 13.92 137.888 13.152 140.504 13.152C140.816 13.152 141.128 13.164 141.44 13.188C141.752 13.212 142.04 13.272 142.304 13.368C142.568 13.44 142.784 13.56 142.952 13.728C143.12 13.872 143.204 14.064 143.204 14.304C143.564 14.304 143.924 14.376 144.284 14.52C144.668 14.664 145.016 14.88 145.328 15.168C145.664 15.456 145.928 15.828 146.12 16.284C146.336 16.716 146.444 17.244 146.444 17.868C146.444 18.756 146.228 19.488 145.796 20.064C145.364 20.64 144.812 21.108 144.14 21.468C143.492 21.804 142.772 22.044 141.98 22.188C141.212 22.308 140.48 22.368 139.784 22.368C138.992 22.368 138.248 22.308 137.552 22.188C136.88 22.068 136.304 21.924 135.824 21.756V21.9C135.824 22.908 135.908 23.844 136.076 24.708C136.244 25.572 136.508 26.316 136.868 26.94C137.252 27.54 137.744 28.02 138.344 28.38C138.968 28.716 139.724 28.884 140.612 28.884ZM140.216 14.844C138.92 14.844 137.924 15.312 137.228 16.248C136.532 17.184 136.088 18.48 135.896 20.136C136.304 20.4 136.856 20.58 137.552 20.676C138.272 20.748 138.956 20.784 139.604 20.784C140.9 20.784 141.8 20.58 142.304 20.172C142.832 19.764 143.096 19.056 143.096 18.048C143.096 16.848 142.82 16.02 142.268 15.564C141.716 15.084 141.032 14.844 140.216 14.844Z" fill="#F6F6F6"/>
</svg>
